<svg xmlns="http://www.w3.org/2000/svg" xmlns:xlink="http://www.w3.org/1999/xlink" width="216.179" height="31" viewBox="0 0 216.179 31"><defs><clipPath id="a"><rect width="216.179" height="31" fill="#0f0f0f"/></clipPath></defs><g transform="translate(0 0)"><g transform="translate(0 0)" clip-path="url(#a)"><path d="M347.341,31.468a2.863,2.863,0,1,0-2.863,2.863,2.863,2.863,0,0,0,2.863-2.863" transform="translate(-221.054 -18.51)" fill="#ffd635"/><path d="M57.2,29.468a5.47,5.47,0,0,1-2.46-2.524,9.553,9.553,0,0,1-.841-4.256V13.656h3.754V22.72a6.167,6.167,0,0,0,.453,2.606,2.738,2.738,0,0,0,1.23,1.343,4.157,4.157,0,0,0,1.877.389A3.452,3.452,0,0,0,63.82,26.1a4.841,4.841,0,0,0,.923-3.382V13.656h3.787v9.031q0,3.819-1.861,5.712a7.317,7.317,0,0,1-5.454,1.893,8.775,8.775,0,0,1-4.013-.825" transform="translate(-34.878 -8.837)" fill="#0f0f0f"/><path d="M103,28.392a5.018,5.018,0,0,1-1.845-4.059h3.657a2.527,2.527,0,0,0,1.035,2.085,4.637,4.637,0,0,0,2.654.647,4.314,4.314,0,0,0,2.266-.486,1.664,1.664,0,0,0,.777-1.521,1.78,1.78,0,0,0-.372-1.165,2.482,2.482,0,0,0-1.019-.712,14.451,14.451,0,0,0-1.845-.55l-.55-.13a19.3,19.3,0,0,1-3.3-1.084,4.8,4.8,0,0,1-1.91-1.489,4.023,4.023,0,0,1-.679-2.444,3.876,3.876,0,0,1,1.666-3.414,8.038,8.038,0,0,1,4.612-1.149,7.65,7.65,0,0,1,4.871,1.278,4.444,4.444,0,0,1,1.6,3.576h-3.528a1.877,1.877,0,0,0-.744-1.634,3.9,3.9,0,0,0-2.266-.534,3.945,3.945,0,0,0-1.877.372,1.336,1.336,0,0,0-.68,1.279,1.465,1.465,0,0,0,.324.971,2.289,2.289,0,0,0,.923.631,13.749,13.749,0,0,0,1.8.534l.13.032c.108.022.2.043.291.065a22.8,22.8,0,0,1,3.334,1.02,5.245,5.245,0,0,1,2.12,1.554,4.111,4.111,0,0,1,.825,2.67,4.635,4.635,0,0,1-.777,2.686,5.02,5.02,0,0,1-2.314,1.764,10.249,10.249,0,0,1-3.868.631A8.372,8.372,0,0,1,103,28.392" transform="translate(-65.456 -8.362)" fill="#0f0f0f"/><path d="M156.316,18.207v3.3H153.21a8.255,8.255,0,0,1-3.579-.678,4.312,4.312,0,0,1-2.086-2.2,10.165,10.165,0,0,1-.681-4.08V8.3h-3.882V5.131h4.03L147.9.081h2.717v5.05H155.8V8.3H150.62v6.405a6.667,6.667,0,0,0,.244,2.008,1.9,1.9,0,0,0,.907,1.115,3.8,3.8,0,0,0,1.86.374Z" transform="translate(-92.522 -0.053)" fill="#0f0f0f"/><path d="M236.575,29.9a2.312,2.312,0,0,1-.858-.793,7.035,7.035,0,0,1-.663-1.392l-5.7-14.241h3.916l4.661,12.493L242.6,13.472h3.948l-5.7,14.241a8.6,8.6,0,0,1-.68,1.375,2.328,2.328,0,0,1-.858.793,2.86,2.86,0,0,1-1.375.291,2.9,2.9,0,0,1-1.359-.275" transform="translate(-148.414 -8.718)" fill="#0f0f0f"/><path d="M479.378,29.021a4.743,4.743,0,0,1-1.845-3.92h3.657a2.264,2.264,0,0,0,1.035,1.946,4.637,4.637,0,0,0,2.654.647,4.314,4.314,0,0,0,2.266-.486,1.664,1.664,0,0,0,.777-1.521,1.78,1.78,0,0,0-.372-1.165,2.482,2.482,0,0,0-1.019-.712,14.453,14.453,0,0,0-1.845-.55l-.55-.13a19.3,19.3,0,0,1-3.3-1.084,4.8,4.8,0,0,1-1.91-1.489,4.023,4.023,0,0,1-.679-2.444,3.876,3.876,0,0,1,1.667-3.414,8.037,8.037,0,0,1,4.612-1.149,7.65,7.65,0,0,1,4.871,1.278,4.445,4.445,0,0,1,1.6,3.576h-3.528a1.877,1.877,0,0,0-.744-1.634,3.9,3.9,0,0,0-2.266-.534,3.945,3.945,0,0,0-1.877.372,1.336,1.336,0,0,0-.68,1.279,1.464,1.464,0,0,0,.324.971,2.289,2.289,0,0,0,.923.631,13.749,13.749,0,0,0,1.8.534l.13.032c.108.022.2.043.291.065a22.8,22.8,0,0,1,3.334,1.02,5.245,5.245,0,0,1,2.12,1.554,4.111,4.111,0,0,1,.825,2.67,4.635,4.635,0,0,1-.777,2.686,5.02,5.02,0,0,1-2.314,1.764,10.249,10.249,0,0,1-3.868.631,8.373,8.373,0,0,1-5.308-1.424" transform="translate(-309.005 -8.769)" fill="#0f0f0f"/><path d="M523.218,29.021a4.74,4.74,0,0,1-1.841-3.92h3.657a2.262,2.262,0,0,0,1.032,1.946,4.637,4.637,0,0,0,2.654.647,4.314,4.314,0,0,0,2.266-.486,1.664,1.664,0,0,0,.777-1.521,1.78,1.78,0,0,0-.372-1.165,2.482,2.482,0,0,0-1.019-.712,14.447,14.447,0,0,0-1.845-.55l-.55-.13a19.3,19.3,0,0,1-3.3-1.084,4.8,4.8,0,0,1-1.91-1.489,4.023,4.023,0,0,1-.679-2.444,3.876,3.876,0,0,1,1.667-3.414,8.038,8.038,0,0,1,4.612-1.149,7.649,7.649,0,0,1,4.871,1.278,4.444,4.444,0,0,1,1.6,3.576h-3.528a1.877,1.877,0,0,0-.744-1.634,3.9,3.9,0,0,0-2.266-.534,3.945,3.945,0,0,0-1.877.372,1.336,1.336,0,0,0-.68,1.279,1.465,1.465,0,0,0,.324.971,2.289,2.289,0,0,0,.923.631,13.746,13.746,0,0,0,1.8.534l.13.032c.108.022.2.043.291.065a22.792,22.792,0,0,1,3.334,1.02,5.245,5.245,0,0,1,2.12,1.554,4.111,4.111,0,0,1,.825,2.67,4.635,4.635,0,0,1-.777,2.686,5.02,5.02,0,0,1-2.314,1.764,10.249,10.249,0,0,1-3.868.631,8.373,8.373,0,0,1-5.308-1.424" transform="translate(-337.375 -8.769)" fill="#0f0f0f"/><path d="M190.816,12.972a8.445,8.445,0,1,0,0,16.89,10.353,10.353,0,0,0,5.033-1.073l0,1.073h3.406l.011-8.3v-.042c0-.035,0-.071,0-.106a8.456,8.456,0,0,0-8.449-8.445m0,13.488a5.043,5.043,0,1,1,5.043-5.043,5.049,5.049,0,0,1-5.043,5.043" transform="translate(-118.01 -8.394)" fill="#0f0f0f"/><path d="M8.465,29.862a8.446,8.446,0,1,1,8.447-8.446,8.456,8.456,0,0,1-8.447,8.446m0-13.489a5.043,5.043,0,1,0,5.043,5.043,5.049,5.049,0,0,0-5.043-5.043" transform="translate(-0.012 -8.392)" fill="#0f0f0f"/><path d="M16.329,55.336a11.149,11.149,0,0,1-2.878,2.427,5.041,5.041,0,1,1-10.047.59H0A8.456,8.456,0,0,0,8.445,66.8v.008a8.45,8.45,0,0,0,8.448-8.454h0a8.4,8.4,0,0,0-.563-3.017" transform="translate(0 -35.807)" fill="#0f0f0f"/><path d="M426.736,37.711a.57.57,0,0,0,0,.078V37.8a.863.863,0,0,0,.007.1,1.527,1.527,0,0,1,0-.18" transform="translate(-276.132 -24.402)" fill="#0f0f0f"/><path d="M434.538,13.516a8.552,8.552,0,0,0-7.8,8.445.285.285,0,0,0,0,.078,1.527,1.527,0,0,0,0,.18,8.451,8.451,0,0,0,8.438,8.188c3.162,0,6.966-1.818,8.216-5.343h-3.953A4.922,4.922,0,0,1,435.18,27a5.049,5.049,0,0,1-4.955-4.1h13.4s0,0,0,0v-.963a8.45,8.45,0,0,0-9.088-8.421m5.382,6.719H430.44s-.007,0,0-.007a5.043,5.043,0,0,1,9.49,0,.008.008,0,0,1-.007.007" transform="translate(-276.134 -8.731)" fill="#0f0f0f"/><path d="M426.736,37.491a.285.285,0,0,0,0,.078.57.57,0,0,1,0-.078Z" transform="translate(-276.132 -24.26)" fill="#0f0f0f"/><path d="M564.687,37.711a.57.57,0,0,0,0,.078V37.8a.863.863,0,0,0,.007.1,1.527,1.527,0,0,1,0-.18" transform="translate(-365.398 -24.402)" fill="#0f0f0f"/><path d="M572.488,13.516a8.552,8.552,0,0,0-7.8,8.445.285.285,0,0,0,0,.078,1.527,1.527,0,0,0,0,.18,8.453,8.453,0,0,0,8.438,8.188c3.162,0,6.967-1.818,8.216-5.343h-3.953A4.914,4.914,0,0,1,573.13,27a5.048,5.048,0,0,1-4.951-4.1h13.4a0,0,0,0,0,0,0v-.963a8.453,8.453,0,0,0-9.091-8.421m5.385,6.719H568.39s0,0,0-.007a5.043,5.043,0,0,1,9.49,0s0,.007,0,.007" transform="translate(-365.4 -8.731)" fill="#0f0f0f"/><path d="M564.687,37.491a.285.285,0,0,0,0,.078.57.57,0,0,1,0-.078Z" transform="translate(-365.398 -24.26)" fill="#0f0f0f"/><path d="M285.574,29.862a8.446,8.446,0,1,1,8.446-8.446,8.456,8.456,0,0,1-8.446,8.446m0-13.489a5.043,5.043,0,1,0,5.043,5.043,5.049,5.049,0,0,0-5.043-5.043" transform="translate(-179.325 -8.392)" fill="#0f0f0f"/><path d="M390.7,21.8V30.13h-3.406V21.8a5.015,5.015,0,1,0-10.03,0V30.13h-3.4V21.756A8.419,8.419,0,0,1,390.7,21.8" transform="translate(-241.921 -8.659)" fill="#0f0f0f"/><path d="M377.264,4.287V0h-3.4V7.338a10.654,10.654,0,0,1,3.4-3.051" transform="translate(-241.919 0)" fill="#0f0f0f"/></g></g></svg>