<svg xmlns="http://www.w3.org/2000/svg" width="155.818" height="34.016" viewBox="0 0 155.818 34.016"><path d="M157.9,26.7c0,4.142,1.2,5.431,2.992,5.754v1.1h-13.3v-1.1c2.025-.323,3.452-1.289,3.452-4.834V9.391c0-1.888-1.1-2.9-3.452-3.084V5.339A34.422,34.422,0,0,0,156.884,0h.828Z" transform="translate(-124.113)" fill="#0f0f0f"/><path d="M87.884,60.158v.087a2.492,2.492,0,0,1,1.065,2.537,13.731,13.731,0,0,0-.819,3.3,3.445,3.445,0,0,0,3.5,3.637,3.616,3.616,0,0,0,3.5-3.5C95.127,63.259,92.285,60.781,87.884,60.158Z" transform="translate(-73.907 -50.59)" fill="#0f0f0f"/><path d="M356.011,72.07a3.235,3.235,0,0,0,3.36-3.222c0-1.564-1.1-2.169-1.1-3.614a2.935,2.935,0,0,1,1.286-2.632V62.44c-3.86,1.057-6.625,3.533-6.625,6.269A3.155,3.155,0,0,0,356.011,72.07Z" transform="translate(-296.796 -52.509)" fill="#0f0f0f"/><path d="M649.526,32.452c2.025-.323,3.452-1.289,3.452-4.834V9.391A2.737,2.737,0,0,0,650.4,6.445l-.874-.138V5.339l1.519-.6A32.755,32.755,0,0,0,659.008,0h.829V26.7c0,4.142,1.2,5.431,3.452,5.754v1.1H649.526Z" transform="translate(-546.223)" fill="#0f0f0f"/><path d="M749.067,32.452c2.025-.323,3.452-1.289,3.452-4.834V18.6c0-1.887-1.1-2.9-3.452-3.084v-.967a35.291,35.291,0,0,0,9.482-5.339h.828V26.7c0,4.142,1.2,5.431,2.992,5.754v1.1h-13.3Zm2.485-28.493A3.737,3.737,0,0,1,755.649,0a3.881,3.881,0,0,1,4.1,3.958,3.825,3.825,0,0,1-4.1,3.96A3.882,3.882,0,0,1,751.552,3.958Z" transform="translate(-629.932)" fill="#0f0f0f"/><path d="M15.144,80.464c-5.018,0-8.193-3.637-8.148-10.541C7.036,64.7,8.631,60.85,10.7,60.23v-.072C4.2,60.612,0,65.33,0,72.316c0,7.089,4.834,12.29,11.6,12.29,4.373,0,8.377-2.393,9.8-6.075l-.737-.506A7,7,0,0,1,15.144,80.464Z" transform="translate(0 -50.59)" fill="#0f0f0f"/><path d="M233.387,77.082V66.771c0-5.477-3.774-6.858-6.674-6.858-2.616,0-5.627,2.254-7.97,4.235v.458A7.5,7.5,0,0,1,223.26,63c2.071,0,3.268,1.61,3.268,5.154V78c0,3.545-1.427,4.511-2.992,4.834v1.1h13.3v-1.1C234.584,82.513,233.387,81.224,233.387,77.082Z" transform="translate(-183.953 -50.384)" fill="#0f0f0f"/><path d="M369.8,80.718a1.961,1.961,0,0,1-1.2.461c-1.105,0-2.163-1.244-2.163-3.637V67.6c0-5.386-3.222-7.687-9.114-7.687-.277,0-.552.009-.824.023v.225c1.838.327,2.964,3,3.126,7.99v2.57h-.006l-.039,7.512a5.808,5.808,0,0,0,.138,1.289A5.64,5.64,0,0,1,356,80.856c-2.44,0-3.682-1.749-3.682-4.281,0-2.7,1.358-5.115,6.178-6.92V68.523c-10.962,3.608-13.036,5.985-13.036,10.124a6.129,6.129,0,0,0,6.4,5.754,10.575,10.575,0,0,0,8.193-3.774,5.513,5.513,0,0,0,4.971,3.544,6.3,6.3,0,0,0,5.432-2.808Z" transform="translate(-290.512 -50.384)" fill="#0f0f0f"/><g transform="translate(82.005 9.273)"><path d="M525.739,58.305h-.828a34.422,34.422,0,0,1-9.3,5.339v.967c2.163,0,3.452,1.289,3.452,3.084v9.021c0,3.545-1.427,4.511-3.452,4.834v1.1h14.223v-1.1c-2.716-.323-3.913-1.612-3.913-5.754Z" transform="translate(-515.612 -58.305)" fill="#0f0f0f"/><path d="M592.148,60.335c-1.666,0-3.72,2.22-5.61,4.1v.244a2.953,2.953,0,0,1,1.33-.269c1.779,0,2.163,2.874,4.787,2.874a3.357,3.357,0,0,0,3.315-3.314A3.632,3.632,0,0,0,592.148,60.335Z" transform="translate(-575.258 -60.012)" fill="#0f0f0f"/></g><path d="M866.474,78.231a7.391,7.391,0,0,1-5.616,2.348c-4.788,0-7.641-2.946-8.1-9.114,4.419-.23,8.884-.506,13.809-.736.3-6.164-3.183-9.935-8.558-10.434l0,.306c1.331,1.2,2.256,4.747,2.392,9.252-2.44.138-4.833.323-7.687.461v-.736c.033-4.109.4-7.793,2.022-8.977v-.306c-5.236.974-9.018,5.8-9.018,12.137,0,6.9,4.971,12.29,11.6,12.29,4.465,0,8.423-2.485,9.712-6.075Z" transform="translate(-711.208 -50.705)" fill="#0f0f0f"/></svg>