<svg xmlns="http://www.w3.org/2000/svg" width="101.208" height="57.922" viewBox="0 0 101.208 57.922"><path d="M101.208,25.962V31.9H81.937V2.026h6.785V25.962ZM12.109,31.9A14.942,14.942,0,0,0,26.568,20.721l16.9,13.2,16.889-13.2V31.9H79.628V25.962H67.142V2.026H60.357V13.2l-16.2,12.657-3.623-2.831,7.756-6.06,8.445-6.6L51.913,6.6l-16.2,12.657-3.623-2.831L48.29,3.767,43.468,0l-16.9,13.2A14.942,14.942,0,0,0,12.109,2.026H0V31.9ZM6.785,25.962v-18h5.324c4.5,0,8.151,4.029,8.151,9s-3.649,9-8.151,9Z" fill="#0f0f0f"/><path d="M101.208,138.213c0-1.786-.993-2.58-2.978-2.978s-3.175-.6-3.175-1.984c0-.992.794-1.588,2.183-1.588,1.786,0,2.382.794,2.382,1.786l.2.2h.794l.2-.2c0-1.985-1.589-2.779-3.573-2.779-2.183,0-3.374,1.191-3.374,2.581,0,1.588,1.19,2.382,3.175,2.778s2.977.6,2.977,2.183c0,.992-.595,1.786-2.58,1.786-1.786,0-2.58-.993-2.58-2.183l-.2-.2h-.794l-.2.2c0,1.786,1.389,3.175,3.77,3.175,2.58,0,3.771-1.19,3.771-2.778m-8.534-1.984.2-.2v-.595c0-2.779-1.588-4.764-4.366-4.764s-4.366,1.985-4.366,4.764v.4c0,2.778,1.39,5.16,4.565,5.16a3.65,3.65,0,0,0,3.969-2.977l-.2-.2h-.794l-.2.2A2.645,2.645,0,0,1,88.705,140a3.453,3.453,0,0,1-3.375-3.572l.2-.2Zm-1.191-.993H85.529l-.2-.2a3.181,3.181,0,1,1,6.351,0Zm-8.733,5.359v-9.527l-.2-.2h-.794l-.2.2v9.527l.2.2h.794Zm0-11.512v-1.19l-.2-.2h-.794l-.2.2v1.19l.2.2h.794ZM75.21,140c-1.985,0-3.177-1.39-3.177-4.168s1.191-4.168,3.177-4.168,3.174,1.388,3.174,4.168S77.193,140,75.21,140m3.174-.6c0,2.58-.6,4.565-2.977,4.565-1.786,0-2.382-.794-2.58-1.786l-.2-.2h-.794l-.2.2c.2,1.588,1.389,2.778,3.77,2.778,2.581,0,4.168-1.588,4.168-5.557v-8.336l-.2-.2h-.6l-.2.2-.2,1.192h-.2a3.311,3.311,0,0,0-3.176-1.589c-2.778,0-4.168,2.183-4.168,5.161s1.39,5.16,4.168,5.16a3.309,3.309,0,0,0,3.176-1.588Zm-12.9-7.74c1.984,0,3.373,1.588,3.373,4.168S67.469,140,65.485,140s-3.375-1.588-3.375-4.168,1.39-4.168,3.375-4.168m0,9.327c2.58,0,4.564-1.786,4.564-5.16s-1.984-5.161-4.564-5.161-4.565,1.787-4.565,5.161,1.984,5.16,4.565,5.16m-5.955-.4V127.1l-.2-.2h-.794l-.2.2v13.5l.2.2h.794Zm-7.144-8.931c1.984,0,3.374,1.588,3.374,4.168S54.37,140,52.386,140s-3.375-1.588-3.375-4.168,1.389-4.168,3.375-4.168m0,9.327c2.58,0,4.565-1.786,4.565-5.16s-1.985-5.161-4.565-5.161-4.565,1.787-4.565,5.161,1.985,5.16,4.565,5.16m-5.756-.4V134.64c0-2.58-1.389-3.969-3.572-3.969a3.6,3.6,0,0,0-3.175,1.589h-.2l-.2-1.192-.2-.2h-.6l-.2.2v9.527l.2.2h.8l.2-.2v-5.359c0-2.183.993-3.572,3.176-3.572,1.588,0,2.58.992,2.58,2.976v5.955l.2.2h.794Zm-10.122,0V134.64c0-2.58-1.389-3.969-3.572-3.969a3.606,3.606,0,0,0-3.176,1.589h-.2V127.1l-.2-.2H28.57l-.2.2v13.5l.2.2h.794l.2-.2v-5.359c0-2.183.993-3.572,3.175-3.572,1.588,0,2.58.992,2.58,2.976v5.955l.2.2h.795Zm-17.067-4.763c0-2.779,1.388-4.168,3.374-4.168a2.723,2.723,0,0,1,2.977,2.381l.2.2h.795l.2-.2c-.2-1.984-1.787-3.374-4.168-3.374-2.58,0-4.564,1.589-4.564,5.161s1.984,5.16,4.564,5.16c2.381,0,3.969-1.389,4.168-3.374l-.2-.2h-.795l-.2.2A2.724,2.724,0,0,1,22.814,140c-1.985,0-3.374-1.39-3.374-4.168m-2.183.4.2-.2v-.595c0-2.779-1.588-4.764-4.367-4.764s-4.366,1.985-4.366,4.764v.4c0,2.778,1.39,5.16,4.565,5.16a3.65,3.65,0,0,0,3.969-2.977l-.2-.2h-.793l-.2.2A2.644,2.644,0,0,1,13.288,140a3.453,3.453,0,0,1-3.374-3.572l.2-.2Zm-1.191-.993H10.112l-.2-.2a3.181,3.181,0,1,1,6.351,0Zm-5.348-7.541v-.6l-.2-.2H.2l-.2.2v.6l.2.2H4.565l.2.2v12.5l.2.2h.794l.2-.2v-12.5l.2-.2H10.52Z" transform="translate(0 -87.039)" fill="#0f0f0f"/></svg>