<svg xmlns="http://www.w3.org/2000/svg" xmlns:xlink="http://www.w3.org/1999/xlink" width="130.476" height="35.942" viewBox="0 0 130.476 35.942"><defs><clipPath id="a"><rect width="130.476" height="35.942" fill="#0f0f0f"/></clipPath></defs><g clip-path="url(#a)"><path d="M27.076,1.991a6.166,6.166,0,0,0-1.567,1.285c-.593.6-1.15,1.231-1.728,1.844-.139.148-.316.261-.456.408a10.851,10.851,0,0,0-1.276,1.524c-.32.491-.627.989-.929,1.491-.513.851-1.016,1.709-1.526,2.562-.131.219-.263.439-.41.647a3.613,3.613,0,0,1-.476.6c-.659.6-1.319,1.207-2.011,1.772-.473.386-1,.708-1.5,1.058-.261.182-.52.369-.786.545-.788.523-1.6,1.012-2.419,1.479a8.919,8.919,0,0,0-1.776,1.326c-.831.8-1.653,1.6-2.474,2.405-.1.1-.17.223-.261.329-.315.366-.636.727-.948,1.1-.437.515-.869,1.035-1.3,1.554-.483.577-.966,1.154-1.445,1.734-.374.453-.741.91-1.111,1.366-.145.178-.294.353-.431.537a1.435,1.435,0,0,0-.171.3.551.551,0,0,0,.131.665,11.073,11.073,0,0,1,1.433,1.643.7.7,0,0,0,.448.232c.351-.086.687-.159,1.017-.251a.6.6,0,0,1,.512.082c.309.2.608.42.915.627.773.522,1.541,1.05,2.321,1.561a29.6,29.6,0,0,0,2.7,1.527,2.43,2.43,0,0,0,.963.224,6.492,6.492,0,0,0,1.941-.164,3.184,3.184,0,0,0,.911-.39c.884-.538,1.767-1.08,2.62-1.665a8.05,8.05,0,0,0,1.992-1.944c.528-.735,1.1-1.44,1.582-2.206a4.371,4.371,0,0,0,.55-1.541,8.562,8.562,0,0,0,.071-2.214,11.9,11.9,0,0,0-.553-2.728,14.008,14.008,0,0,0-.907-2.106,7.331,7.331,0,0,1-.8-2.062,2.38,2.38,0,0,1,.063-1.1,1.132,1.132,0,0,1,.992-.731,2.446,2.446,0,0,1,1.057.137c.525.2,1.048.407,1.559.639a19.719,19.719,0,0,0,2,.883,8.678,8.678,0,0,0,2.159.484,13.933,13.933,0,0,0,1.414.059,8,8,0,0,0,2.008-.242A7.248,7.248,0,0,0,33.9,15.91c.3-.258.611-.5.919-.75.107-.086.222-.163.349-.256a.644.644,0,0,1,.063.424q0,2.491,0,4.984c0,3.782.011,7.565-.005,11.347a5.736,5.736,0,0,1-1.051,3.382,3.362,3.362,0,0,1-1.107,1.041c-.28.152-.551.324-.828.481a5.855,5.855,0,0,1-1.974.575,8.973,8.973,0,0,1-2.143.058c-1.739-.124-3.479-.013-5.217-.073-3.544-.123-7.089,0-10.632-.089-1.919-.046-3.837-.032-5.755-.061-.461-.007-.922,0-1.382.01a4.663,4.663,0,0,1-1.68-.33,5.146,5.146,0,0,1-2.369-1.866A5.748,5.748,0,0,1,.008,32.039,2.418,2.418,0,0,1,0,31.733c0-2.466,0-4.932,0-7.4,0-1,.087-1.992.042-2.984C-.034,19.523.028,17.7.006,15.872c-.007-.61.03-1.22.029-1.83-.006-2-.048-4.007-.017-6.01A11.5,11.5,0,0,1,.212,5.752,4.435,4.435,0,0,1,2.566,2.579a6.312,6.312,0,0,1,2.985-.713q9.39.009,18.779,0,1.171,0,2.342.006c.133,0,.282-.033.4.117" transform="translate(0 -1.291)" fill="#0f0f0f"/><path d="M131.421,46.912q0-4.849,0-9.7a7.528,7.528,0,0,1,.079-1.1,1.808,1.808,0,0,1,.963-1.313,3.273,3.273,0,0,1,1.57-.437c.957-.03,1.914.008,2.871,0s1.92,0,2.88,0c.318,0,.637-.035.955-.053a1.912,1.912,0,0,1,.23,0,15.328,15.328,0,0,1,3.329.46,12.692,12.692,0,0,1,3.789,1.719,13.2,13.2,0,0,1,2.656,2.416,13.879,13.879,0,0,1,2.3,4.044,11.875,11.875,0,0,1,.567,2.531,9.161,9.161,0,0,1,.048,1.949,11.351,11.351,0,0,1-.81,3.64,16.434,16.434,0,0,1-2.1,3.508,9.437,9.437,0,0,1-1.617,1.62,13.578,13.578,0,0,1-2.8,1.731,11.389,11.389,0,0,1-3.04.892,12.671,12.671,0,0,1-2.865.139c-1.356-.091-2.711-.026-4.066-.048-.369-.006-.739.038-1.108.053a7,7,0,0,1-2.054-.18,2.672,2.672,0,0,1-1.236-.665,1.839,1.839,0,0,1-.556-1.342c-.008-1.061-.007-2.121-.008-3.182q0-3.336,0-6.671Zm6.068-6.28c-.01.221-.025.4-.025.575q0,5.287,0,10.574a2.864,2.864,0,0,0,.01.345.7.7,0,0,0,.65.682,1.19,1.19,0,0,0,.342.022,5.042,5.042,0,0,1,.835-.021c.521.023,1.045-.036,1.567-.03a9.325,9.325,0,0,0,1.818-.224,6.846,6.846,0,0,0,1.334-.467,4.128,4.128,0,0,0,1.956-1.479q.2-.3.39-.613a6.341,6.341,0,0,0,1.032-3.623,5.623,5.623,0,0,0-.061-.836,5.031,5.031,0,0,0-.618-1.715c-.3-.476-.564-.972-.888-1.428a3.083,3.083,0,0,0-.706-.693,7.007,7.007,0,0,0-3.773-1.22c-.217-.013-.436.006-.652-.018a14.818,14.818,0,0,0-2.829.026,1.6,1.6,0,0,0-.382.144" transform="translate(-90.942 -23.734)" fill="#0f0f0f"/><path d="M365.438,52.914c.17.007.319.019.468.019q4.05,0,8.1,0a7.108,7.108,0,0,1,1.251.149,2.039,2.039,0,0,1,1.457,1.686,18.079,18.079,0,0,1,.053,1.95,2.115,2.115,0,0,1-.635,1.511,3.045,3.045,0,0,1-1.468.854,1.935,1.935,0,0,1-.455.047q-7.141,0-14.283-.008a5.054,5.054,0,0,1-2.018-.379,3.571,3.571,0,0,1-1.751-1.481,1.825,1.825,0,0,1-.258-.871c-.006-.2,0-.409-.01-.613a2.146,2.146,0,0,1,.43-1.4c.257-.365.537-.713.808-1.067.388-.506.772-1.016,1.166-1.517.669-.852,1.351-1.694,2.016-2.55.618-.8,1.214-1.608,1.832-2.4.453-.584.93-1.15,1.39-1.728.3-.379.593-.766.889-1.149q.739-.952,1.479-1.9c.282-.362.57-.719.851-1.083.076-.1.132-.212.215-.349a1.134,1.134,0,0,0-.232-.055c-.576,0-1.154-.026-1.727.016-1.559.115-3.119.035-4.679.05-.612.006-1.227-.019-1.837-.07a2.527,2.527,0,0,1-2.168-1.837,2.466,2.466,0,0,1-.032-.38c0-.5,0-1,0-1.495a1.865,1.865,0,0,1,.7-1.5,3.245,3.245,0,0,1,1.469-.778,2.242,2.242,0,0,1,.417-.043c4.7,0,9.394-.009,14.091,0a4.189,4.189,0,0,1,2.613.849,1.826,1.826,0,0,1,.814,1.564,10.94,10.94,0,0,1-.05,1.183,3.7,3.7,0,0,1-.808,1.631c-1.095,1.459-2.222,2.893-3.342,4.333-.814,1.048-1.639,2.087-2.451,3.136s-1.622,2.132-2.444,3.189c-.54.694-1.1,1.373-1.654,2.057a.716.716,0,0,0-.215.432" transform="translate(-246.297 -23.898)" fill="#0f0f0f"/><path d="M242.426,48.981q0-3.412,0-6.823a6.944,6.944,0,0,1,.494-2.536,10.094,10.094,0,0,1,1.167-2.148,10.852,10.852,0,0,1,1.516-1.719c.449-.416.883-.845,1.368-1.226a9.188,9.188,0,0,1,1.96-1.117,12.081,12.081,0,0,1,3.212-.849,11.855,11.855,0,0,1,2.679-.079,12.555,12.555,0,0,1,4.087.939,7.181,7.181,0,0,1,1.935,1.076c.469.414.919.85,1.376,1.276a10.336,10.336,0,0,1,1.545,1.8,12.213,12.213,0,0,1,1.063,1.989,8.924,8.924,0,0,1,.537,2.067,4.2,4.2,0,0,1,.016.689q0,6.286,0,12.573c0,.409-.016.819.009,1.226a1.445,1.445,0,0,1-.719,1.348,4.112,4.112,0,0,1-4.647-.03,1.439,1.439,0,0,1-.7-1.31c.012-2.261.045-4.524-.008-6.784s-.043-4.545-.053-6.818a2.715,2.715,0,0,0-.541-1.491,4.313,4.313,0,0,0-1.669-1.432,6.081,6.081,0,0,0-2.042-.735,5.346,5.346,0,0,0-1.482-.065c-.276.043-.563.026-.838.075a6.072,6.072,0,0,0-2.554,1.078,3.821,3.821,0,0,0-1.6,2.254,3.354,3.354,0,0,0-.051.722q0,4.638,0,9.277,0,1.84,0,3.68c0,.127-.01.255-.019.382a1.717,1.717,0,0,1-1,1.353,3.959,3.959,0,0,1-1.974.534,3.785,3.785,0,0,1-2.089-.524,1.708,1.708,0,0,1-.89-.954,1.956,1.956,0,0,1-.072-.524q-.007-3.584,0-7.168Z" transform="translate(-167.772 -22.452)" fill="#0f0f0f"/><path d="M217.711,45.425c0,3.437-.008,6.874.005,10.311a2.538,2.538,0,0,1-1.04,2.074,2.131,2.131,0,0,1-1.42.479c-.474-.007-.948-.016-1.421,0a1.771,1.771,0,0,1-1.486-.654,3.026,3.026,0,0,1-.8-1.376,3.176,3.176,0,0,1-.045-.57q0-8.778,0-17.557c0-1.048.007-2.1-.006-3.143a2.239,2.239,0,0,1,.69-1.647c.178-.182.385-.334.572-.508a.844.844,0,0,1,.559-.217c.587-.027,1.174-.053,1.761-.068a3.058,3.058,0,0,1,.649.035,2.572,2.572,0,0,1,1.5.995,2.194,2.194,0,0,1,.477,1.457c-.009,3.463,0,6.925,0,10.388Z" transform="translate(-146.374 -22.525)" fill="#0f0f0f"/><path d="M327.988,45.364c0-3.45.012-6.9-.008-10.349a2.661,2.661,0,0,1,1.252-2.237,1.687,1.687,0,0,1,.99-.244c.6-.022,1.2-.022,1.8,0a1.677,1.677,0,0,1,.664.156,2.409,2.409,0,0,1,1.272,1.415,2.153,2.153,0,0,1,.083.6c.119,2.961.055,5.924.063,8.887.01,4.063,0,8.126,0,12.189a2.614,2.614,0,0,1-.53,1.645,1.756,1.756,0,0,1-1.5.779c-.729-.021-1.459-.014-2.189-.011a1.437,1.437,0,0,1-.97-.392,2.614,2.614,0,0,1-.889-1.482,2.665,2.665,0,0,1-.047-.531q0-5.213,0-10.426Z" transform="translate(-226.984 -22.505)" fill="#0f0f0f"/><path d="M34.57,59.239a6.631,6.631,0,0,1-.574,3,7.81,7.81,0,0,1-.891,1.466,12.386,12.386,0,0,1-.808.967,7.2,7.2,0,0,1-1.272,1.1,16.048,16.048,0,0,1-1.339.89,3.835,3.835,0,0,1-2.218.614,3.794,3.794,0,0,1-.827-.133,7.491,7.491,0,0,1-2.37-1.225c-.356-.269-.737-.511-1.066-.809-.492-.445-.951-.927-1.418-1.4-.143-.144-.27-.306-.4-.459a4.14,4.14,0,0,1-.805-1.425,2.168,2.168,0,0,1,0-1.389,7.709,7.709,0,0,1,1.078-2.009A20.373,20.373,0,0,1,24.3,55.363c.294-.281.622-.527.933-.792a15.834,15.834,0,0,1,1.7-1.307,8.762,8.762,0,0,1,2.186-1.095,2.4,2.4,0,0,1,1.708.111,3.745,3.745,0,0,1,1.334,1.065,13.19,13.19,0,0,1,1.653,2.433,8.467,8.467,0,0,1,.531,1.593,4.964,4.964,0,0,1,.231,1.868" transform="translate(-14.161 -36.03)" fill="#0f0f0f"/><path d="M84.39,9.674c0,.882-.031,1.765.012,2.644a1.367,1.367,0,0,1-.45,1.124A8.321,8.321,0,0,1,80.3,15.671c-.393.1-.806.127-1.2.218a6.438,6.438,0,0,1-1.869-.026,6.051,6.051,0,0,1-1.415-.326,8.429,8.429,0,0,1-2.29-1.139,10.347,10.347,0,0,1-1.9-1.66,2.218,2.218,0,0,1-.442-2.324,10.449,10.449,0,0,1,1.384-2.541,25.334,25.334,0,0,1,2.081-2.447A11.96,11.96,0,0,1,76.251,3.96c.326-.245.626-.525.951-.771A8,8,0,0,1,79.19,2.053a1.443,1.443,0,0,1,.863-.042,5.4,5.4,0,0,1,2.875,1.574,5.521,5.521,0,0,1,1.435,2.909,2.462,2.462,0,0,1,.022.382q0,1.4,0,2.8Z" transform="translate(-49.157 -1.36)" fill="#0f0f0f"/><path d="M133.957,10.356a5.391,5.391,0,0,1-.811-.113,2.491,2.491,0,0,1-1.166-.832,2.918,2.918,0,0,1-.675-1.7,2.683,2.683,0,0,1,.2-1.415,2.462,2.462,0,0,1,1.909-1.531,5.367,5.367,0,0,1,1.521.008,2.047,2.047,0,0,1,1.121.541,2.808,2.808,0,0,1,.982,2.662,2.671,2.671,0,0,1-1.6,2.125,3.327,3.327,0,0,1-1.478.255m.218-1.142a1.343,1.343,0,0,0,1.221-.576,1.8,1.8,0,0,0,.127-1.94,1.517,1.517,0,0,0-1.177-.823,1.414,1.414,0,0,0-1.208.331,1.733,1.733,0,0,0-.528,1.739,1.5,1.5,0,0,0,1.566,1.269" transform="translate(-90.856 -3.261)" fill="#0f0f0f"/><path d="M198.776,9.415c-.087.186-.169.331-.225.485a.8.8,0,0,1-.94.4.691.691,0,0,1-.446-.858,8.088,8.088,0,0,1,.3-.9q.24-.644.5-1.282c.27-.661.542-1.321.825-1.976a1.008,1.008,0,0,1,1.776-.13,2.48,2.48,0,0,1,.241.475c.306.688.626,1.37.907,2.068.218.543.389,1.1.574,1.66a.741.741,0,0,1-.572.956.887.887,0,0,1-.848-.474c-.054-.128-.1-.26-.157-.425-.647-.01-1.282-.01-1.939,0m1.116-2.589-.215-.095c-.2.456-.385.893-.568,1.333-.014.034.026.091.039.135h1.208l-.465-1.373" transform="translate(-136.435 -3.242)" fill="#0f0f0f"/><path d="M218.477,6.282c.047.328.282.441.526.525a5.708,5.708,0,0,0,.738.2,2.565,2.565,0,0,1,1.139.516,1.181,1.181,0,0,1,.493.746,3.958,3.958,0,0,1,.066.757,1.258,1.258,0,0,1-.8,1.083,3.143,3.143,0,0,1-1.971.287,3.972,3.972,0,0,1-1.165-.348c-.341-.177-.374-.222-.5-.671l.185-.458a1.03,1.03,0,0,1,1.061.063,3.8,3.8,0,0,0,.71.271,1.35,1.35,0,0,0,.974-.143l.12-.347a.694.694,0,0,0-.51-.391,10.713,10.713,0,0,1-1.1-.308,4.039,4.039,0,0,1-.838-.451,1.232,1.232,0,0,1-.5-1.383,1.574,1.574,0,0,1,.766-1.05,2.976,2.976,0,0,1,1.932-.295,2.4,2.4,0,0,1,.975.325,1.329,1.329,0,0,1,.274.2.484.484,0,0,1,.095.6c-.109.232-.261.4-.525.358A2.151,2.151,0,0,1,220,6.183a1.9,1.9,0,0,0-1-.194.6.6,0,0,0-.522.293" transform="translate(-150.184 -3.354)" fill="#0f0f0f"/><path d="M182.5,9.077a1.129,1.129,0,0,1-.815.927,3.638,3.638,0,0,1-2,.217,2.342,2.342,0,0,1-2.166-1.878,2.922,2.922,0,0,1,.632-2.748,2.7,2.7,0,0,1,1.428-.83,3.108,3.108,0,0,1,2.292.335,1.226,1.226,0,0,1,.587.68.567.567,0,0,1-.145.661.594.594,0,0,1-.679.055,2.164,2.164,0,0,1-.438-.307,1.468,1.468,0,0,0-2.235.726,1.775,1.775,0,0,0,.381,1.776,1.6,1.6,0,0,0,.914.445.929.929,0,0,0,.654-.144c.216-.11.425-.233.636-.352.461-.259.729-.162.923.335.014.035.021.073.029.1" transform="translate(-122.785 -3.234)" fill="#0f0f0f"/><path d="M156.1,5.227a1.408,1.408,0,0,1,.092.875,1.159,1.159,0,0,1-.775.243c-.252,0-.5.006-.779.01-.014.132-.032.229-.032.327q0,1.55,0,3.1c0,.1,0,.2,0,.306a.433.433,0,0,1-.339.451,1.008,1.008,0,0,1-.971-.109,1.036,1.036,0,0,1-.138-.6c0-1.008,0-2.015,0-3.023V6.445a.456.456,0,0,0-.443-.12,1.752,1.752,0,0,1-.794-.066.375.375,0,0,1-.3-.351c0-.025,0-.051-.006-.076-.039-.507.1-.682.619-.687,1.137-.011,2.274-.008,3.411,0a2.531,2.531,0,0,1,.461.084" transform="translate(-104.917 -3.555)" fill="#0f0f0f"/><path d="M171.119,10.234a.891.891,0,0,1-.956.194.4.4,0,0,1-.291-.368,2.061,2.061,0,0,1-.011-.305q0-1.971,0-3.942a2.041,2.041,0,0,1,.007-.268.46.46,0,0,1,.418-.43,1.55,1.55,0,0,1,.344-.009c.349.026.517.185.519.534.006,1.48,0,2.96,0,4.44a.893.893,0,0,1-.028.154" transform="translate(-117.553 -3.53)" fill="#0f0f0f"/><path d="M139.242.466a.7.7,0,0,1,.568-.319c.4-.055.807-.26,1.243-.063a.913.913,0,0,1,.109.184.452.452,0,0,1-.337.645,1.506,1.506,0,0,1-.339.037c-.165.01-.332,0-.495.025-.507.074-.629,0-.748-.509" transform="translate(-96.365 0)" fill="#0f0f0f"/></g></svg>