<svg xmlns="http://www.w3.org/2000/svg" xmlns:xlink="http://www.w3.org/1999/xlink" width="139" height="48.23" viewBox="0 0 139 48.23"><defs><clipPath id="a"><rect width="139" height="48.23" fill="#0f0f0f"/></clipPath></defs><g clip-path="url(#a)"><path d="M145.8,175.87a1.221,1.221,0,0,1-.442,1.134,2.06,2.06,0,0,1-1.085.4,3.222,3.222,0,0,1-2.31-.482c-1.451-.731-2.989-1.286-4.457-1.987-1.185-.566-2.435-.957-3.638-1.471-.838-.359-1.739-.569-2.612-.848-.329-.105-.653-.229-.985-.324q-2.6-.744-5.212-1.476c-.642-.18-1.286-.361-1.937-.506-.673-.15-1.355-.266-2.035-.38-.969-.162-1.946-.278-2.909-.468a36.567,36.567,0,0,0-4.347-.449c-1.158-.088-2.313-.2-3.471-.286-.988-.069-1.988-.036-2.965-.177-1.166-.168-2.332-.043-3.491-.139-3.3-.272-6.6-.087-9.907-.115-1.113-.01-2.228.077-3.341.142-1.456.086-2.912.193-4.367.293-1.48.1-2.961.2-4.441.307-1.233.09-2.467.168-3.7.3-1.378.147-2.758.239-4.142.31-1.429.073-2.851.268-4.276.408-.123.012-.249,0-.373.009-1.113.054-2.231.068-3.339.176-1.305.127-2.608.241-3.92.292-1.606.063-3.21.194-4.815.29-.964.057-1.928.1-2.892.153-1.039.052-2.088.029-3.115.169-1.117.152-2.236.021-3.342.14-2.033.218-4.075,0-6.1.164a48.469,48.469,0,0,1-5.58.077c-1.611-.055-3.222-.088-4.833-.126-.915-.022-1.832-.068-2.743-.15-1.278-.115-2.551-.279-3.828-.409-.713-.073-1.431-.1-2.144-.179-.81-.089-1.62-.187-2.422-.323-1.289-.219-2.577-.451-3.857-.718-1.014-.212-2.015-.488-3.023-.728s-1.955-.65-2.93-.974c-.77-.256-1.549-.5-2.313-.782-.059-.022-.1-.085-.153-.128a.535.535,0,0,1,.207-.027c.781.239,1.563.478,2.34.731a27.8,27.8,0,0,0,4.306,1.065c.706.111,1.393.34,2.1.465,1.165.207,2.336.382,3.508.554q1.574.23,3.154.42c.663.078,1.33.121,2,.169,2.8.2,5.608.161,8.414.162.821,0,1.642.011,2.462-.013,1.337-.039,2.675-.083,4.011-.159s2.665-.176,3.995-.3,2.65-.29,3.977-.418c.788-.076,1.58-.1,2.368-.169.737-.067,1.471-.168,2.206-.25.565-.063,1.129-.13,1.695-.178.764-.064,1.531-.1,2.294-.17.786-.074,1.568-.181,2.353-.268.516-.057,1.032-.111,1.549-.155.739-.063,1.481-.1,2.22-.173.885-.082,1.768-.186,2.652-.273.64-.063,1.281-.108,1.921-.175.662-.069,1.323-.155,1.985-.234.147-.017.294-.039.442-.052a9.6,9.6,0,0,1,1.7-.128c.821.076,1.588-.23,2.4-.209a16.417,16.417,0,0,0,2.279-.241c.1-.011.2-.016.3-.022.989-.055,1.979-.093,2.966-.17.762-.06,1.52-.171,2.28-.259.049-.006.1-.011.149-.013,1.039-.054,2.078-.1,3.116-.166,1.109-.076,2.216-.179,3.324-.271.05,0,.1-.009.149-.011,1.188-.052,2.376-.115,3.565-.153,1.934-.063,3.872-.056,5.8-.176,4.347-.271,8.694-.083,13.041-.106,1.057-.006,2.115.171,3.173.257.247.02.5,0,.745.021.737.071,1.473.156,2.209.235.147.016.295.044.442.047a23.887,23.887,0,0,1,3.677.425c1.871.334,3.751.612,5.619.96.894.167,1.775.419,2.65.67,1.806.518,3.611,1.042,5.4,1.6a21.877,21.877,0,0,1,2.211.871q2.785,1.219,5.551,2.478c.585.267,1.135.612,1.706.911a2.888,2.888,0,0,1,1.079,1.2,1.664,1.664,0,0,1,.1.561" transform="translate(-6.815 -140.872)" fill="#0f0f0f"/><path d="M766.478,3.628c1.193,0,2.387,0,3.58,0,.421,0,.4.017.475.442a2.145,2.145,0,0,0,.263.758c1.919,3.044,3.855,6.076,5.778,9.117,1.286,2.034,2.556,4.078,3.835,6.117a4.959,4.959,0,0,0,.293.431c.037.046.116.059.176.087a1,1,0,0,0,.04-.2c-.023-2.574-.055-5.148-.072-7.722-.014-1.964,0-3.928-.018-5.892a3.956,3.956,0,0,0-.727-2.379,1.612,1.612,0,0,0-.129-.182c-.171-.174-.349-.342-.523-.513.265-.023.53-.064.8-.065,1.616-.006,3.232,0,4.848,0,.2,0,.4,0,.6.009a.508.508,0,0,1,.138.047c-.028.061-.053.124-.084.184a.169.169,0,0,1-.054.051,2.834,2.834,0,0,0-1.1,2.478q-.02,8.166,0,16.333a5,5,0,0,0,.248,1.228c.068.256.014.385-.255.4-.149.007-.3,0-.447,0h-5a4.125,4.125,0,0,1-.521-.013c-.163-.021-.286-.113-.218-.3a1.179,1.179,0,0,0-.269-1.1q-2.792-4.265-5.57-8.539-2.274-3.494-4.54-6.994c-.121-.187-.236-.379-.365-.561a.609.609,0,0,0-.175-.118.847.847,0,0,0-.045.213c.035.742.1,1.484.11,2.227.025,1.79.011,3.58.039,5.369.034,2.209.064,4.419.155,6.627A3.447,3.447,0,0,0,769,24.052c.049.036.115.127.1.154a.241.241,0,0,1-.167.121q-1.967.022-3.934.029-1.148,0-2.3-.011c-.056,0-.15-.067-.156-.112s.054-.13.106-.168a2.758,2.758,0,0,0,1.082-1.645,6.96,6.96,0,0,0,.214-1.539q.025-6.9,0-13.8a6.121,6.121,0,0,0-.2-1.469,2.694,2.694,0,0,0-.972-1.626,1.291,1.291,0,0,1-.221-.282,1.484,1.484,0,0,1,.336-.081c1.193-.006,2.387,0,3.58,0Z" transform="translate(-648.719 -3.082)" fill="#0f0f0f"/><path d="M589.443,19.778c-1.94,0-3.88.015-5.819-.011a.8.8,0,0,0-.9.571c-.174.488-.419.953-.571,1.446a2.443,2.443,0,0,0,.326,2.2c.2.292.155.358-.206.381-.074,0-.149,0-.224,0q-2.867,0-5.734-.011c-.091,0-.255-.052-.258-.091a.413.413,0,0,1,.093-.3,12.115,12.115,0,0,0,2.29-3.459q3.827-7.586,7.629-15.184A1.86,1.86,0,0,0,586.33,3.9c-.068-.226.056-.255.221-.256.323,0,.647,0,.97,0,1.766,0,3.532-.005,5.3,0,.36,0,.4.029.264.373a1.011,1.011,0,0,0,.079.852c.3.629.589,1.259.893,1.885,1.14,2.345,2.289,4.685,3.423,7.032.94,1.945,1.862,3.9,2.8,5.848a16.886,16.886,0,0,0,2.745,4.408.371.371,0,0,1,.084.232c0,.026-.121.078-.187.078-1.805,0-3.611,0-5.416,0-.246,0-.493.03-.737.018-.191-.01-.274-.129-.143-.3.787-1.012.518-2.009.074-3.079a1.716,1.716,0,0,0-1.955-1.232c-1.76.1-3.53.029-5.3.029m.089-3.141c1.541,0,3.082.005,4.623,0,.43,0,.488-.114.3-.484-.406-.795-.819-1.585-1.217-2.384Q591.615,10.507,590,7.243c-.143-.289-.313-.564-.467-.847-.063-.116-.12-.149-.19-.007-.054.112-.113.221-.166.333q-1.231,2.588-2.461,5.176c-.673,1.411-1.354,2.818-2.022,4.232-.188.4-.129.481.288.5.124.007.248,0,.373,0h4.175" transform="translate(-490.068 -3.093)" fill="#0f0f0f"/><path d="M22.44,0q2.107.191,4.215.382c1.035.095,2.069.2,3.1.282a2.833,2.833,0,0,0,.581-.093c.353-.049.461.061.373.421q-.433,1.766-.888,3.527c-.082.318-.136.318-.484.189-.928-.345-1.845-.73-2.795-1a17.99,17.99,0,0,0-5.312-.489,5.916,5.916,0,0,0-2.047.314,11.508,11.508,0,0,0-1.268.6,1.768,1.768,0,0,0-.251,2.711,5.594,5.594,0,0,0,2.718,1.3c1.182.258,2.388.407,3.58.622a20.661,20.661,0,0,1,3.949,1.021,6.425,6.425,0,0,1,3.1,2.455,5.146,5.146,0,0,1,.707,3.786,5.646,5.646,0,0,1-3,4.117A11.138,11.138,0,0,1,24.8,21.463a20.234,20.234,0,0,1-4,.263c-.863-.042-1.723-.157-2.585-.241-.419-.041-.837-.087-1.256-.125-.789-.071-1.577-.142-2.367-.2a1.939,1.939,0,0,0-.445.029c-.208.032-.486.182-.6.1-.143-.1-.161-.392-.213-.605q-.468-1.91-.926-3.822a.238.238,0,0,1-.016-.073c.009-.095.021-.189.033-.284a1.233,1.233,0,0,1,.267.036c.953.35,1.9.727,2.858,1.053a16.82,16.82,0,0,0,4.578.882c.742.037,1.486.146,2.224.11A7.549,7.549,0,0,0,25.8,17.8a2.878,2.878,0,0,0,1.483-1.591,2.3,2.3,0,0,0-1.137-2.784,7.717,7.717,0,0,0-1.928-.763c-1.516-.351-3.054-.6-4.58-.913a12.427,12.427,0,0,1-4.631-1.744,4.618,4.618,0,0,1-2.163-4.593,4.573,4.573,0,0,1,1.7-3.049A9.666,9.666,0,0,1,18.737.393,20.863,20.863,0,0,1,22.44,0" transform="translate(-10.545)" fill="#0f0f0f"/><path d="M177.364,11.656c0-1.715.006-3.43,0-5.146a3.022,3.022,0,0,0-1.095-2.568,1.062,1.062,0,0,1-.171-.23,1.29,1.29,0,0,1,.325-.089q3.1-.009,6.19,0a1.021,1.021,0,0,1,.222.018c.039.009.1.048.1.077a.17.17,0,0,1-.063.123A3.727,3.727,0,0,0,181.543,7c0,3.157.023,6.314-.018,9.471a9.559,9.559,0,0,1-.982,4.383,6.277,6.277,0,0,1-3.048,2.837,11.3,11.3,0,0,1-4.166.993c-.89.046-1.784.156-2.671.117a13.359,13.359,0,0,1-5.621-1.215,6.6,6.6,0,0,1-3.523-4.636,12.048,12.048,0,0,1-.288-2.8c.01-2.66.014-5.32,0-7.98a18.353,18.353,0,0,0-.149-2.3,2.9,2.9,0,0,0-.925-1.82,3.3,3.3,0,0,1-.311-.376,4.889,4.889,0,0,1,.51-.053c1.442,0,2.884,0,4.326,0,.6,0,1.193,0,1.79,0a1.044,1.044,0,0,1,.214.046c-.021.062-.022.148-.065.181a3.308,3.308,0,0,0-1.237,2.67c-.011.271-.079.54-.079.81q-.009,4.4,0,8.8a7.229,7.229,0,0,0,.447,2.546,3.8,3.8,0,0,0,1.921,2.18,7.971,7.971,0,0,0,2.488.7,11.135,11.135,0,0,0,2.663-.023,5.4,5.4,0,0,0,2.71-.929,4.413,4.413,0,0,0,1.82-3.58c.054-1.788.013-3.579.013-5.369h.005" transform="translate(-135.978 -3.078)" fill="#0f0f0f"/><path d="M458.589,3.639h9.549l.6,0c.2,0,.26.1.19.285-.009.023-.007.05-.015.073A3.069,3.069,0,0,0,469.1,6.02q.277.809.538,1.623a1.485,1.485,0,0,1,.036.276,1.386,1.386,0,0,1-.339-.032c-.747-.262-1.476-.591-2.239-.792a15.616,15.616,0,0,0-3.676-.456c-.8-.015-1.591,0-2.387-.01-.242,0-.376.09-.365.349.006.149,0,.3,0,.447q0,6.6,0,13.2a5.1,5.1,0,0,0,.23,1.835,3.485,3.485,0,0,0,1.053,1.59.871.871,0,0,1,.147.224,2.259,2.259,0,0,1-.268.086,1.17,1.17,0,0,1-.223,0q-3.091-.005-6.181-.013c-.068,0-.194-.04-.194-.061a.379.379,0,0,1,.068-.249,3.233,3.233,0,0,0,.749-.808,4.324,4.324,0,0,0,.431-1.94c.02-4.7.013-9.4.012-14.1,0-.548-.01-.559-.518-.563a29.327,29.327,0,0,0-4.387.163,11.325,11.325,0,0,0-3.829,1.129.991.991,0,0,1-.325.048,1.508,1.508,0,0,1,.037-.283c.2-.613.4-1.227.614-1.833a2.782,2.782,0,0,0,.137-1.882c-.075-.224-.012-.333.223-.338.2,0,.4,0,.6,0h9.549Z" transform="translate(-380.643 -3.092)" fill="#0f0f0f"/><path d="M340.193,24.351q-4.1,0-8.2,0c-.417,0-.835-.016-1.252-.031a.139.139,0,0,1-.1-.08.148.148,0,0,1,.048-.127,3.8,3.8,0,0,0,1.373-3.439c.007-4.549,0-9.1.006-13.647a4.816,4.816,0,0,0-.577-2.354,2.833,2.833,0,0,0-.737-.82c-.043-.036-.047-.119-.07-.18a.577.577,0,0,1,.139-.045c.124-.008.248-.009.372-.009h5.967a2.151,2.151,0,0,1,.3.006.7.7,0,0,1,.177.078.625.625,0,0,1-.092.107,3.524,3.524,0,0,0-1.314,3.086q.01,6.712,0,13.424c0,.174,0,.348,0,.522-.01.527-.011.533.532.534,2.138,0,4.278.051,6.414-.019a15.253,15.253,0,0,0,4.825-.739c.787-.29,1.534-.688,2.3-1.035a1.878,1.878,0,0,1,.206-.067c.013.092.062.2.033.273-.234.6-.48,1.2-.727,1.793a3.553,3.553,0,0,0-.349,2.378c.075.267-.085.366-.313.384-.2.015-.4.008-.6.008h-8.353" transform="translate(-281.277 -3.076)" fill="#0f0f0f"/><path d="M1.851,233.988c.547,0,1.093,0,1.64,0,.144,0,.212.051.172.229a3.134,3.134,0,0,0,.38,2.14c1.013,2.038,1.97,4.1,2.947,6.161.307.647.607,1.3.908,1.946.077.167.159.264.3.061a2.95,2.95,0,0,0,.283-.435c.437-.94.858-1.889,1.3-2.828.3-.649.629-1.289.949-1.931.506-1.018,1.018-2.033,1.523-3.051a2.6,2.6,0,0,0,.22-2.083c-.073-.211.007-.332.251-.321q1.3.058,2.595.107c.174.007.348,0,.522,0s.3.03.155.248a27.992,27.992,0,0,0-1.869,3.2c-.3.6-.624,1.177-.928,1.769-.439.856-.868,1.719-1.306,2.575q-.774,1.512-1.556,3.019c-.17.329-.349.654-.518.984a2.653,2.653,0,0,0-.21.475c-.158.561-.152.566-.685.568-.7,0-1.392-.01-2.087,0-.311.006-.446-.068-.558-.413a14.548,14.548,0,0,0-.848-1.884q-1.156-2.35-2.335-4.69-1.221-2.417-2.469-4.82a7.773,7.773,0,0,0-.506-.732,1.874,1.874,0,0,1-.12-.244,1.631,1.631,0,0,1,.286-.053c.522-.005,1.044,0,1.566,0Z" transform="translate(0.001 -198.966)" fill="#0f0f0f"/><path d="M473.266,262.07c0,.472.017.945,0,1.416a2.617,2.617,0,0,0,.847,2.28.671.671,0,0,1,.11.184.56.56,0,0,1-.186.077c-.572.005-1.143,0-1.715,0a.642.642,0,0,1-.667-.485c-.1-.314-.273-.29-.506-.14a5.894,5.894,0,0,1-3.383.924,9.637,9.637,0,0,1-3.24-.3,3.641,3.641,0,0,1-1.555-.954,2.4,2.4,0,0,1,.348-3.379,3.806,3.806,0,0,1,1.691-.873,19.552,19.552,0,0,1,3.068-.483,17.115,17.115,0,0,1,2.74-.083c.174.012.216-.054.231-.192a1.814,1.814,0,0,0-1.488-1.981,8.483,8.483,0,0,0-3.372.228c-.868.186-1.714.472-2.571.709a1.536,1.536,0,0,1-.271.026,2.464,2.464,0,0,1,.051-.273c.165-.543.347-1.082.5-1.629a.448.448,0,0,1,.483-.359c.542-.034,1.081-.1,1.622-.142a22.813,22.813,0,0,1,2.437-.188,7.46,7.46,0,0,1,2.562.273,3,3,0,0,1,2.119,2.525c.125.929.146,1.872.214,2.809l-.063,0m-2.205.277c-.006-.642-.007-.661-.68-.638-.913.031-1.831.041-2.734.16a6.886,6.886,0,0,0-2.161.44,1.118,1.118,0,0,0-.732.934,1.071,1.071,0,0,0,.556,1.121,3.377,3.377,0,0,0,1.265.374,5.306,5.306,0,0,0,3.367-.536,1.929,1.929,0,0,0,1.121-1.855" transform="translate(-393.391 -218.175)" fill="#0f0f0f"/><path d="M851.562,261.259c0,.571,0,1.143,0,1.714a3.192,3.192,0,0,0,.719,2.206.847.847,0,0,1,.1.192.772.772,0,0,1-.2.061c-.522,0-1.043,0-1.565,0a.611.611,0,0,1-.637-.42c-.108-.329-.242-.384-.534-.2a6.146,6.146,0,0,1-3.392.915,10.216,10.216,0,0,1-2.81-.165,3.2,3.2,0,0,1-2.088-1.309,2.526,2.526,0,0,1,1.284-3.693,10.746,10.746,0,0,1,3.9-.795c.889-.025,1.777-.1,2.666-.142.255-.012.333-.141.35-.376a1.723,1.723,0,0,0-1.264-1.713,7.007,7.007,0,0,0-3.085.05,15.936,15.936,0,0,0-3.129.9c-.058.026-.186.028-.2,0a.4.4,0,0,1-.043-.27c.215-.58.462-1.149.663-1.733a.383.383,0,0,1,.442-.288c1.34.017,2.643-.326,3.971-.421a6.311,6.311,0,0,1,3.3.651,2.8,2.8,0,0,1,1,1.069,3.774,3.774,0,0,1,.558,2.126c-.022.546,0,1.093,0,1.639Zm-5.842,3.051c.677-.136,1.368-.222,2.027-.419a2.189,2.189,0,0,0,1.6-2.233c-.017-.528-.025-.561-.549-.545-.791.024-1.582.076-2.372.137-.591.046-1.184.1-1.768.2a5.6,5.6,0,0,0-.983.321.95.95,0,0,0-.643,1.048,1.072,1.072,0,0,0,.6.959,4.722,4.722,0,0,0,2.09.533" transform="translate(-715.273 -217.579)" fill="#0f0f0f"/><path d="M684.161,262.016c0,.572-.006,1.144,0,1.715A2.326,2.326,0,0,0,685,265.7a.643.643,0,0,1,.115.181c-.06.028-.12.079-.181.08-.572.006-1.144,0-1.716,0a.645.645,0,0,1-.673-.48c-.082-.254-.222-.327-.441-.181a6.649,6.649,0,0,1-3.979.965,8.1,8.1,0,0,1-2.291-.177,4.144,4.144,0,0,1-1.878-1.01,2.069,2.069,0,0,1-.484-2.326,2.953,2.953,0,0,1,1.989-1.851,12.309,12.309,0,0,1,3.421-.608c.89-.012,1.779-.1,2.669-.137.283-.012.388-.126.4-.406a1.536,1.536,0,0,0-1.028-1.56,4.952,4.952,0,0,0-2.407-.2,19.563,19.563,0,0,0-3.04.646c-.327.1-.641.245-.964.357a.908.908,0,0,1-.266.009.876.876,0,0,1,.012-.207c.179-.592.349-1.189.559-1.77a.515.515,0,0,1,.368-.288c1.733-.036,3.44-.442,5.186-.342a6.178,6.178,0,0,1,1.808.372,2.708,2.708,0,0,1,1.671,1.784,7.832,7.832,0,0,1,.3,1.744c.049.568.011,1.143.011,1.715Zm-6.2,2.8a7.055,7.055,0,0,0,2.945-.707,1.933,1.933,0,0,0,1.023-2.188c-.008-.1-.174-.235-.285-.257a2.781,2.781,0,0,0-.668-.012c-.765.042-1.53.083-2.294.142a9.95,9.95,0,0,0-1.469.178,4.285,4.285,0,0,0-1.167.465.964.964,0,0,0-.267,1.474,1.5,1.5,0,0,0,.89.632c.482.1.962.2,1.293.272" transform="translate(-572.798 -218.114)" fill="#0f0f0f"/><path d="M110.947,262.018c-1.317,0-2.635-.006-3.952,0-.541,0-.516.014-.427.555a1.53,1.53,0,0,0,.441.83,3.952,3.952,0,0,0,2.795,1.161,8.977,8.977,0,0,0,4.209-.7c.113-.049.237-.073.351-.121.19-.081.291-.013.293.181.007.546,0,1.093,0,1.64,0,.2-.067.331-.295.339-1.78.059-3.54.411-5.333.305a5.563,5.563,0,0,1-3.247-1.119,3.839,3.839,0,0,1-1.543-3,6.1,6.1,0,0,1,.277-2.64,4.617,4.617,0,0,1,2.568-2.629,6.953,6.953,0,0,1,2.157-.486,7.716,7.716,0,0,1,3.052.351,4.167,4.167,0,0,1,2.793,3.2,12.459,12.459,0,0,1,.167,1.99c.009.132-.029.2-.214.2-1.366-.016-2.731-.009-4.1-.009v-.043m-1.321-1.482h1.343c.472,0,.945.009,1.417,0s.555-.1.506-.585a2.423,2.423,0,0,0-1.583-1.808,6.042,6.042,0,0,0-2.512-.124,2.5,2.5,0,0,0-2.252,2.051c-.061.424-.069.458.4.464.9.012,1.79,0,2.686,0" transform="translate(-88.667 -218.048)" fill="#0f0f0f"/><path d="M337.1,266.311a10.553,10.553,0,0,1-2.578-.311,4.353,4.353,0,0,1-3.08-3.048,4.994,4.994,0,0,1,.389-3.963,4.866,4.866,0,0,1,4.088-2.578,10.817,10.817,0,0,1,2.859.15,4.262,4.262,0,0,1,2.46,1.415,4.061,4.061,0,0,1,1,2.352c.034.52.014,1.043.016,1.565,0,.169-.034.233-.254.231-2.634-.028-5.268-.027-7.9-.052-.438,0-.611.132-.455.67a2.4,2.4,0,0,0,1.745,1.578,8.238,8.238,0,0,0,5.663-.365,1.366,1.366,0,0,1,.34-.143c.083-.006.248.086.249.138.02.571.016,1.142.015,1.714,0,.222-.135.286-.338.3-.492.036-.983.093-1.474.133-.912.074-1.825.142-2.738.213m-.3-5.714c.92,0,1.839.007,2.759,0,.393,0,.479-.092.451-.413a2.412,2.412,0,0,0-1.583-1.979,6.4,6.4,0,0,0-2.511-.123,2.508,2.508,0,0,0-2.24,1.892c-.159.532-.1.62.441.625.895.009,1.789,0,2.684,0" transform="translate(-281.762 -218.11)" fill="#0f0f0f"/><path d="M194.646,265.8l-3.539-.347c-.049,0-.1-.015-.148-.018-.618-.03-.631-.026-.784-.587-.136-.5-.248-1-.356-1.51-.048-.226.089-.254.262-.183a16.692,16.692,0,0,0,3.736.89,11.476,11.476,0,0,0,2.38.019,1.47,1.47,0,0,0,.984-.469.9.9,0,0,0-.34-1.587,11.55,11.55,0,0,0-2.094-.456,11.545,11.545,0,0,1-3.446-.8,2.063,2.063,0,0,1-1.275-1.853,2.411,2.411,0,0,1,1.779-2.588,6.932,6.932,0,0,1,2.319-.436c.245,0,.489-.064.734-.083a4.369,4.369,0,0,1,.889-.031,25.123,25.123,0,0,0,3.32.289c.515,0,.573.087.432.565-.119.4-.276.8-.371,1.205a.32.32,0,0,1-.427.28,3.142,3.142,0,0,1-.5-.134,15.832,15.832,0,0,0-3.2-.589,4.493,4.493,0,0,0-2.036.323.882.882,0,0,0-.543,1.247,1.169,1.169,0,0,0,.642.448,10.412,10.412,0,0,0,1.962.352,10.65,10.65,0,0,1,3.535.758,2.352,2.352,0,0,1,1.355,2.8,3.3,3.3,0,0,1-2.4,2.1,8.926,8.926,0,0,1-2.869.393" transform="translate(-161.476 -217.568)" fill="#0f0f0f"/><path d="M766.38,265.932c-1.3-.124-2.608-.243-3.91-.382a.436.436,0,0,1-.3-.243c-.19-.612-.356-1.232-.512-1.853-.033-.131.036-.24.215-.178a14.848,14.848,0,0,0,5.512.946,5.954,5.954,0,0,0,1.242-.193.932.932,0,0,0,.719-.931.838.838,0,0,0-.63-.969,6.607,6.607,0,0,0-1.218-.3,23.01,23.01,0,0,1-3.5-.606,5.3,5.3,0,0,1-1.155-.493,2.32,2.32,0,0,1-.154-3.733,5.133,5.133,0,0,1,2.68-.968,11.2,11.2,0,0,1,1.625-.125c.667,0,1.334.061,2,.128.712.072,1.419.185,2.13.271.24.029.289.132.208.35-.051.137-.049.295-.1.434-.14.4-.294.786-.442,1.178-.375-.1-.745-.213-1.125-.283-.921-.171-1.842-.365-2.772-.465a4.229,4.229,0,0,0-2.244.376.932.932,0,0,0-.527.677.676.676,0,0,0,.421.85,4.37,4.37,0,0,0,.993.306q1.319.194,2.649.314a6.513,6.513,0,0,1,2.393.7,2.368,2.368,0,0,1,.667,3.617,4.586,4.586,0,0,1-1.982,1.215,11.076,11.076,0,0,1-2.879.362" transform="translate(-647.952 -217.704)" fill="#0f0f0f"/><path d="M264.193,244.5c0-.746.008-1.492,0-2.238-.006-.439-.04-.476-.465-.482a6.367,6.367,0,0,0-2.067.157c-.226.072-.344.051-.264-.218.133-.451.283-.9.407-1.35.083-.3.206-.392.534-.279a2.03,2.03,0,0,0,1.52.055.877.877,0,0,0,.638-.893c-.023-.766-.052-1.533-.1-2.3-.01-.173.059-.231.2-.232.572-.005,1.144-.007,1.715,0,.2,0,.186.116.177.3-.048.915-.056,1.833-.078,2.75-.006.24.095.376.35.37,1.19-.03,2.379-.051,3.568-.1.21-.008.294.05.243.231-.139.5-.29,1-.463,1.488a.337.337,0,0,1-.3.121,15.152,15.152,0,0,0-3.041-.1c-.374-.013-.493.113-.486.5a26.26,26.26,0,0,0,.14,4.382c.15.807.436,1.117,1.2,1.206a3.436,3.436,0,0,0,2.5-.454c.154-.11.3-.106.3.113.016.521.021,1.044-.005,1.565a.388.388,0,0,1-.274.257,29.773,29.773,0,0,1-3.187.157,2.876,2.876,0,0,1-2.763-2.776c-.014-.746,0-1.492,0-2.238Z" transform="translate(-222.354 -201.384)" fill="#0f0f0f"/><path d="M602.483,266.3a6.772,6.772,0,0,1-2.843-.5,4.257,4.257,0,0,1-2.8-3.517,5.347,5.347,0,0,1,.205-2.546,4.809,4.809,0,0,1,3.707-3.182,10.894,10.894,0,0,1,4.059-.028c.389.064.781.11,1.173.148a3.175,3.175,0,0,0,.481-.024c-.03.167-.055.335-.092.5-.093.408-.2.814-.288,1.223-.049.223-.169.285-.375.209-.093-.034-.187-.065-.279-.1a7.708,7.708,0,0,0-3.207-.47,3.314,3.314,0,0,0-3,2.655,3.838,3.838,0,0,0,.2,2.17,2.831,2.831,0,0,0,1.83,1.6,5.881,5.881,0,0,0,2.574.11,6.091,6.091,0,0,0,2.176-.7c.313-.164.369-.12.378.252.012.472-.008.944.007,1.416.01.328-.136.418-.446.428-.392.012-.782.094-1.174.135-.761.08-1.523.152-2.284.227" transform="translate(-507.693 -218.08)" fill="#0f0f0f"/></g></svg>