<svg xmlns="http://www.w3.org/2000/svg" xmlns:xlink="http://www.w3.org/1999/xlink" width="154.634" height="42.302" viewBox="0 0 154.634 42.302"><defs><clipPath id="a"><rect width="154.634" height="42.302" fill="#0f0f0f"/></clipPath></defs><g clip-path="url(#a)"><path d="M24.423,0c-.156.011-.312.032-.468.032q-7.93,0-15.861,0c-.2,0-.4-.022-.6-.034Z" transform="translate(-6.144)" fill="#0f0f0f"/><path d="M805.842,0c-.164.011-.327.031-.491.032q-5.4.005-10.808,0c-.171,0-.342-.024-.513-.037Z" transform="translate(-651.208)" fill="#0f0f0f"/><path d="M0,5.723v0Z" transform="translate(0 -4.694)" fill="#0f0f0f"/><path d="M214.733,0c-1.291.012-2.582.031-3.873.032-.955,0-1.91-.021-2.864-.032Z" transform="translate(-170.584)" fill="#0f0f0f"/><path d="M427.979,0h0Z" transform="translate(-347.721)" fill="#0f0f0f"/><path d="M619.505,0h0Z" transform="translate(-505.607)" fill="#0f0f0f"/><path d="M201.577,23.22c0-6.482-.007-12.965.013-19.447a5.709,5.709,0,0,1,.313-1.759.966.966,0,0,1,.718-.527c2.5-.028,5.006-.128,7.492.054a5.035,5.035,0,0,1,4.493,2.647,8.6,8.6,0,0,1,.868,3.31c.126,3.492.126,6.992.072,10.487a6.936,6.936,0,0,1-1.039,3.888,7.023,7.023,0,0,1-1.475,1.457c-.367.289-.486.482-.319.968a17,17,0,0,1,.515,2.323q.283,1.47.53,2.947c.27,1.6.519,3.21.794,4.812.181,1.055.342,2.117.6,3.154.244.976-.386,1.577-.834,2.253-.758,1.144-1.555,2.263-2.348,3.384a1.738,1.738,0,0,1-.395.307,1.538,1.538,0,0,1-.25-.469c-.179-1.407-.312-2.821-.5-4.226-.282-2.069-.577-4.137-.91-6.2q-.554-3.435-1.193-6.857c-.219-1.183-.251-1.184-1.461-1.229-1.406-.052-1.353-.205-1.351,1.292.008,5.736,0,11.473.013,17.209,0,.367-.116.474-.477.468q-1.683-.029-3.368,0c-.356.006-.469-.12-.469-.467q.01-9.89.005-19.781h-.036M205.908,13.2c0,2.32-.008,4.639.017,6.959a.6.6,0,0,0,.374.449,12.724,12.724,0,0,0,2.37.043,2.711,2.711,0,0,0,2.641-3.053c-.006-.835-.031-1.67-.036-2.505-.016-2.312.045-4.627-.065-6.934a2.3,2.3,0,0,0-2.6-2.511c-.7.01-1.4.043-2.1.041-.439,0-.606.175-.6.619.014,2.3.007,4.594.008,6.892" transform="translate(-165.318 -1.176)" fill="#0f0f0f"/><path d="M394.322,43.514c-.591,0-1.183.014-1.773-.014-.1,0-.279-.2-.267-.291.561-4.061,1.147-8.118,1.713-12.179q.831-5.958,1.633-11.919.768-5.638,1.524-11.278c.153-1.148.262-2.3.4-3.453.1-.885.208-1.77.331-2.653a.339.339,0,0,1,.249-.21c1.272-.015,2.544-.029,3.815,0a1.118,1.118,0,0,1,1.074,1.025c.3,2.582.588,5.167.909,7.747.2,1.581.461,3.154.673,4.733q.465,3.475.9,6.954c.259,2.077.479,4.159.753,6.234.267,2.029.6,4.051.867,6.08a39.729,39.729,0,0,1,.428,4.1,3.006,3.006,0,0,1-.692,1.431c-.744,1.145-1.526,2.265-2.3,3.39a1.191,1.191,0,0,1-.267.214,1.774,1.774,0,0,1-.107-.294c-.229-1.3-.493-2.6-.669-3.906-.267-1.99-.46-3.99-.709-5.983-.164-1.312-.39-2.616-.557-3.928-.18-1.41-.3-2.826-.487-4.235-.171-1.311-.417-2.613-.576-3.926-.25-2.069-.45-4.145-.685-6.216-.016-.138-.145-.263-.222-.395a1.322,1.322,0,0,0-.15.344c-.231,1.905-.435,3.814-.685,5.717-.18,1.368-.443,2.725-.622,4.093-.156,1.189-.216,2.391-.374,3.58-.16,1.21-.414,2.408-.578,3.618-.174,1.282-.271,2.574-.436,3.857-.135,1.053-.322,2.1-.484,3.149-.049.317-.1.634-.132.952-.129,1.15-.247,2.3-.391,3.45-.01.082-.2.2-.305.2-.6.02-1.2.009-1.8.009Z" transform="translate(-321.721 -1.229)" fill="#0f0f0f"/><path d="M595.933,16.088c.008-.156.023-.312.021-.468-.037-2.714-.044-5.428-.13-8.141-.043-1.357-.61-2.067-1.6-2.3a2.676,2.676,0,0,0-3.2,2.522q.015,13.706.04,27.412a7.073,7.073,0,0,0,.221,2.233c.566,1.654,3.023,1.719,3.963.783a2.863,2.863,0,0,0,.636-2.09,18.891,18.891,0,0,0-.008-2.392A3.646,3.646,0,0,1,596.693,31c.921-1.238,1.815-2.5,2.718-3.747a3.119,3.119,0,0,0,.185-.332l.208.1c0,.477,0,.954,0,1.431-.012,2.745.069,5.494-.072,8.232a7.531,7.531,0,0,1-1.5,4.56,5.158,5.158,0,0,1-2.19,1.382,6.465,6.465,0,0,1-2.7.376,8.08,8.08,0,0,1-4.7-1.557,5.211,5.211,0,0,1-1.573-2.871,12.425,12.425,0,0,1-.363-2.906q-.028-13.728.01-27.457a10.5,10.5,0,0,1,.7-4.026,4.693,4.693,0,0,1,3.281-2.881,9.719,9.719,0,0,1,5.618.072,4.727,4.727,0,0,1,2.951,3.308,14.629,14.629,0,0,1,.473,6,3.388,3.388,0,0,1-.78,1.384c-.916,1.308-1.86,2.6-2.79,3.895a.906.906,0,0,0-.082.213l-.145-.093" transform="translate(-481.163 -0.763)" fill="#0f0f0f"/><path d="M793.592,22.389q0-10.271-.007-20.543c0-.354.113-.469.463-.469,3.592,0,7.185-.015,10.777-.02a1.784,1.784,0,0,1,.4.092,1.888,1.888,0,0,1-.152.35c-.76,1.1-1.532,2.189-2.289,3.29a1.347,1.347,0,0,1-1.32.544,23.389,23.389,0,0,0-2.683.058.9.9,0,0,0-.878.891c-.026.439-.021.88-.021,1.32,0,3.737.008,7.474-.009,11.211,0,.5.129.66.652.65,1.811-.034,3.622-.015,5.434-.008.121,0,.3.039.345.118a.432.432,0,0,1-.062.367c-.836,1.191-1.672,2.383-2.542,3.549a.99.99,0,0,1-.671.3c-.709.04-1.421.015-2.133.021a.885.885,0,0,0-.977.843,11.2,11.2,0,0,0-.036,1.251c0,4.1,0,8.19-.009,12.285,0,.439.154.59.586.59q3.244,0,6.488.049c.06,0,.2.272.164.322q-1.309,1.856-2.661,3.681a.747.747,0,0,1-.522.255q-4,.024-7.994-.008c-.117,0-.332-.277-.332-.425q-.025-10.283-.014-20.566Z" transform="translate(-650.843 -1.113)" fill="#0f0f0f"/><path d="M10.69,25.019q0,8.638,0,17.277c0,.112,0,.224.005.335.047.809.048.808-.768.806-.546,0-1.093,0-1.639,0a1.529,1.529,0,0,1-1.664-1.851,8.9,8.9,0,0,0,.034-.961q0-17.109.007-34.218c0-.57-.178-.811-.779-.786-1.307.054-2.617.052-3.925.088-.344.01-.488-.1-.48-.458.021-.88.007-1.76.015-2.641A1.09,1.09,0,0,1,2.653,1.436Q10.827,1.408,19,1.408c.072,0,.233.272.2.315q-1.327,1.923-2.695,3.818a.412.412,0,0,1-.294.116c-1.464.022-2.929.026-4.393.053a1.029,1.029,0,0,0-1.084,1.072c-.026.469-.046.939-.047,1.408q0,8.415,0,16.829" transform="translate(-1.215 -1.155)" fill="#0f0f0f"/></g></svg>