<?xml version="1.0" encoding="UTF-8"?>
<svg xmlns="http://www.w3.org/2000/svg" version="1.1" viewBox="0 0 451.82 131.01">
  <!-- Generator: Adobe Illustrator 28.6.0, SVG Export Plug-In . SVG Version: 1.2.0 Build 709)  -->
  <g>
    <g id="Layer_1">
      <g>
        <path d="M132,0v13.41c-17.41,17.28-35.04,34.78-52.99,52.59,17.72,17.59,35.33,35.07,52.79,52.39v12.35h-13.58c-17.03-16.91-34.43-34.17-52.22-51.82-17.64,17.51-35.02,34.75-52.5,52.09H0c0-4.63,0-9.26,0-13.89.66-.49,1.38-.9,1.96-1.47,16.13-15.98,32.24-31.97,48.34-47.98.67-.66,1.19-1.47,1.84-2.28-.87-.95-1.5-1.7-2.19-2.39C34.08,47.23,18.2,31.47,2.31,15.72c-.69-.69-1.44-1.38-2.22-1.99C.09,9.1,0,4.63,0,0,4.33,0,8.67,0,13,0c.73.88,1.39,1.84,2.19,2.64,16.01,15.91,32.03,31.81,48.05,47.7.7.69,1.43,1.36,2.22,2.1.6-.53,1.12-.93,1.59-1.39,16.38-16.25,32.75-32.49,49.11-48.76C116.86,1.61,117.39.77,118,0c4.67,0,9.33,0,14,0Z"/>
        <path d="M451.82,86.35l-9.6,23.69h-61.95V22.08h26.74c0,4.35-.11,8.36-.02,12.58.1,4.29.02,8.59.02,12.88v38.8h44.81Z"/>
        <path d="M102,0c-.5.99-.78,2.19-1.52,2.94-11.03,11.03-22.11,22-33.2,32.96-.33.33-.82.49-1.45.86-1.09-.98-2.21-1.92-3.24-2.95-9.9-9.81-19.8-19.61-29.66-29.46C31.68,3.12,29.85,2.19,30,0h25c3.23,4.12,7.12,7.55,11.2,11.39C70.03,7.36,73.51,3.68,77,0c8.33,0,16.67,0,25,0Z"/>
        <path d="M0,29.77c.77.6,1.62,1.13,2.31,1.81,10.46,10.35,20.9,20.72,31.33,31.1.91.91,1.69,1.95,2.65,3.06-.62.98-.99,1.91-1.64,2.56-10.42,10.39-20.85,20.77-31.34,31.09C2.44,100.23,1.11,100.63,0,101.23c0-8.27,0-16.54,0-24.81,3.65-3.41,7.3-6.83,11.19-10.47C7.17,62.23,3.59,58.91,0,55.58c0-8.6,0-17.2,0-25.8Z"/>
        <path d="M297.48,22.08c3.89,15.07,8.54,32.46,13.15,48.48l13.15-48.48h30.06l15.1,87.89h-28.35c-.48-2.84-4.5-38.72-5.02-42.37-3.97,14.13-7.93,28.26-11.91,42.43h-25.32c-3.86-13.94-9.03-32.24-13.06-46.81l-5.72,46.81h-26.68c5.32-29.05,9.68-58.39,15.1-87.95h29.51Z"/>
        <path d="M225.38,110.07c-10.4,0-21.48-.04-31.85-.04-11.23-29.24-21.82-58.36-33.15-87.89,9.97,0,19.41-.07,29.21-.07,6.54,18.35,12.88,35.77,19.64,54.71,6.6-18.77,13.3-36.59,19.65-54.65,3.69,0,21.85,0,29.67,0l-33.17,87.92Z"/>
        <path d="M131.8,30.05v25.68c-3.29,3.04-7.04,6.51-10.96,10.13,3.94,3.81,7.51,7.26,10.89,10.52v25.05c-4.14-2.22-6.5-5.66-9.45-8.39-3.16-2.93-6.15-6.05-9.21-9.09-2.94-2.92-5.95-5.78-8.81-8.78-2.82-2.96-6.21-5.43-8.35-8.9,1.85-3.25,29.86-31.48,35.89-36.21Z"/>
        <path d="M31.04,130.83c11.64-11.57,23.47-23.32,34.98-34.75,11.5,11.41,23.32,23.15,35.01,34.76h-24.6c-3.34-3.23-6.77-6.55-10.49-10.14-3.65,3.59-7.06,6.93-10.31,10.13h-24.6Z"/>
      </g>
    </g>
  </g>
</svg>